REM DIRINDEX 1\2,1\3
REM DIRNAME folder01,folder02,folder03
TITLE ""
FILE "CD2Track23.mp3" MP3
  TRACK 01 AUDIO
    TITLE "0:"
    INDEX 01 00:00:00
  TRACK 02 AUDIO
    TITLE "2:cjc102_3414"
    INDEX 01 00:00:27
  TRACK 03 AUDIO
    TITLE "0:"
    INDEX 01 00:01:09
  TRACK 04 AUDIO
    TITLE "3:cjc102_3415"
    INDEX 01 00:01:17
  TRACK 05 AUDIO
    TITLE "0:"
    INDEX 01 00:02:55
  TRACK 06 AUDIO
    TITLE "3:cjc102_3416"
    INDEX 01 00:02:65
  TRACK 07 AUDIO
    TITLE "0:"
    INDEX 01 00:06:10
  TRACK 08 AUDIO
    TITLE "2:cjc102_3417"
    INDEX 01 00:06:12
  TRACK 09 AUDIO
    TITLE "0:"
    INDEX 01 00:07:19
  TRACK 10 AUDIO
    TITLE "3:cjc102_3418"
    INDEX 01 00:07:70
  TRACK 11 AUDIO
    TITLE "0:"
    INDEX 01 00:08:64
  TRACK 12 AUDIO
    TITLE "2:cjc102_3419"
    INDEX 01 00:08:66
  TRACK 13 AUDIO
    TITLE "0:"
    INDEX 01 00:09:67
  TRACK 14 AUDIO
    TITLE "3:cjc102_3420"
    INDEX 01 00:10:65
  TRACK 15 AUDIO
    TITLE "0:"
    INDEX 01 00:11:48
  TRACK 16 AUDIO
    TITLE "2:cjc102_3421"
    INDEX 01 00:11:50
  TRACK 17 AUDIO
    TITLE "0:"
    INDEX 01 00:12:61
  TRACK 18 AUDIO
    TITLE "3:cjc102_3422"
    INDEX 01 00:13:61
  TRACK 19 AUDIO
    TITLE "0:"
    INDEX 01 00:14:47
  TRACK 20 AUDIO
    TITLE "2:cjc102_3423"
    INDEX 01 00:14:51
  TRACK 21 AUDIO
    TITLE "0:"
    INDEX 01 00:15:44
  TRACK 22 AUDIO
    TITLE "3:cjc102_3424"
    INDEX 01 00:16:40
  TRACK 23 AUDIO
    TITLE "0:"
    INDEX 01 00:17:37
  TRACK 24 AUDIO
    TITLE "2:cjc102_3425"
    INDEX 01 00:18:01
  TRACK 25 AUDIO
    TITLE "0:"
    INDEX 01 00:19:01
  TRACK 26 AUDIO
    TITLE "3:cjc102_3426"
    INDEX 01 00:20:08
  TRACK 27 AUDIO
    TITLE "0:"
    INDEX 01 00:20:63
  TRACK 28 AUDIO
    TITLE "2:cjc102_3427"
    INDEX 01 00:21:43
  TRACK 29 AUDIO
    TITLE "0:"
    INDEX 01 00:22:25
  TRACK 30 AUDIO
    TITLE "3:cjc102_3428"
    INDEX 01 00:23:71
  TRACK 31 AUDIO
    TITLE "0:"
    INDEX 01 00:24:69
  TRACK 32 AUDIO
    TITLE "2:cjc102_3429"
    INDEX 01 00:25:13
  TRACK 33 AUDIO
    TITLE "0:"
    INDEX 01 00:26:22
  TRACK 34 AUDIO
    TITLE "3:cjc102_3430"
    INDEX 01 00:27:26
  TRACK 35 AUDIO
    TITLE "0:"
    INDEX 01 00:28:21
  TRACK 36 AUDIO
    TITLE "2:cjc102_3431"
    INDEX 01 00:28:47
  TRACK 37 AUDIO
    TITLE "0:"
    INDEX 01 00:29:58
  TRACK 38 AUDIO
    TITLE "3:cjc102_3432"
    INDEX 01 00:30:67
  TRACK 39 AUDIO
    TITLE "0:"
    INDEX 01 00:31:65
  TRACK 40 AUDIO
    TITLE "2:cjc102_3433"
    INDEX 01 00:32:00
  TRACK 41 AUDIO
    TITLE "0:"
    INDEX 01 00:32:60
  TRACK 42 AUDIO
    TITLE "3:cjc102_3434"
    INDEX 01 00:33:60
  TRACK 43 AUDIO
    TITLE "0:"
    INDEX 01 00:34:51
  TRACK 44 AUDIO
    TITLE "2:cjc102_3435"
    INDEX 01 00:35:14
  TRACK 45 AUDIO
    TITLE "0:"
    INDEX 01 00:36:29
  TRACK 46 AUDIO
    TITLE "3:cjc102_3436"
    INDEX 01 00:37:24
  TRACK 47 AUDIO
    TITLE "0:"
    INDEX 01 00:38:18
  TRACK 48 AUDIO
    TITLE "2:cjc102_3437"
    INDEX 01 00:38:39
  TRACK 49 AUDIO
    TITLE "0:"
    INDEX 01 00:39:51
  TRACK 50 AUDIO
    TITLE "3:cjc102_3438"
    INDEX 01 00:40:11
  TRACK 51 AUDIO
    TITLE "0:"
    INDEX 01 00:41:28
  TRACK 52 AUDIO
    TITLE "2:cjc102_3439"
    INDEX 01 00:42:25
  TRACK 53 AUDIO
    TITLE "0:"
    INDEX 01 00:43:25
  TRACK 54 AUDIO
    TITLE "3:cjc102_3440"
    INDEX 01 00:44:32
  TRACK 55 AUDIO
    TITLE "0:"
    INDEX 01 00:45:43
  TRACK 56 AUDIO
    TITLE "2:cjc102_3441"
    INDEX 01 00:45:63
  TRACK 57 AUDIO
    TITLE "0:"
    INDEX 01 00:47:03
  TRACK 58 AUDIO
    TITLE "3:cjc102_3442"
    INDEX 01 00:47:54
  TRACK 59 AUDIO
    TITLE "0:"
    INDEX 01 00:48:59
  TRACK 60 AUDIO
    TITLE "2:cjc102_3443"
    INDEX 01 00:48:63
  TRACK 61 AUDIO
    TITLE "0:"
    INDEX 01 00:49:69
  TRACK 62 AUDIO
    TITLE "3:cjc102_3444"
    INDEX 01 00:51:07
  TRACK 63 AUDIO
    TITLE "0:"
    INDEX 01 00:52:26
  TRACK 64 AUDIO
    TITLE "2:cjc102_3445"
    INDEX 01 00:52:28
  TRACK 65 AUDIO
    TITLE "0:"
    INDEX 01 00:53:51
  TRACK 66 AUDIO
    TITLE "3:cjc102_3446"
    INDEX 01 00:54:36
  TRACK 67 AUDIO
    TITLE "0:"
    INDEX 01 00:55:44
  TRACK 68 AUDIO
    TITLE "2:cjc102_3447"
    INDEX 01 00:55:55
  TRACK 69 AUDIO
    TITLE "0:"
    INDEX 01 00:57:03
  TRACK 70 AUDIO
    TITLE "3:cjc102_3448"
    INDEX 01 00:58:07
  TRACK 71 AUDIO
    TITLE "0:"
    INDEX 01 00:59:20
  TRACK 72 AUDIO
    TITLE "2:cjc102_3449"
    INDEX 01 00:59:38
  TRACK 73 AUDIO
    TITLE "0:"
    INDEX 01 01:00:62
  TRACK 74 AUDIO
    TITLE "3:cjc102_3450"
    INDEX 01 01:01:54
  TRACK 75 AUDIO
    TITLE "0:"
    INDEX 01 01:03:02
  TRACK 76 AUDIO
    TITLE "2:cjc102_3451"
    INDEX 01 01:03:55
  TRACK 77 AUDIO
    TITLE "0:"
    INDEX 01 01:04:58
  TRACK 78 AUDIO
    TITLE "2:cjc102_3452"
    INDEX 01 01:05:22
  TRACK 79 AUDIO
    TITLE "0:"
    INDEX 01 01:06:32
  TRACK 80 AUDIO
    TITLE "3:cjc102_3453"
    INDEX 01 01:07:35
  TRACK 81 AUDIO
    TITLE "0:"
    INDEX 01 01:08:54
  TRACK 82 AUDIO
    TITLE "2:cjc102_3454"
    INDEX 01 01:08:60
  TRACK 83 AUDIO
    TITLE "0:"
    INDEX 01 01:09:59
  TRACK 84 AUDIO
    TITLE "2:cjc102_3455"
    INDEX 01 01:10:16
  TRACK 85 AUDIO
    TITLE "0:"
    INDEX 01 01:11:29
  TRACK 86 AUDIO
    TITLE "3:cjc102_3456"
    INDEX 01 01:12:09
  TRACK 87 AUDIO
    TITLE "0:"
    INDEX 01 01:13:32
  TRACK 88 AUDIO
    TITLE "2:cjc102_3457"
    INDEX 01 01:13:51
  TRACK 89 AUDIO
    TITLE "0:"
    INDEX 01 01:14:59
  TRACK 90 AUDIO
    TITLE "2:cjc102_3458"
    INDEX 01 01:15:07
  TRACK 91 AUDIO
    TITLE "0:"
    INDEX 01 01:16:26
  TRACK 92 AUDIO
    TITLE "3:cjc102_3459"
    INDEX 01 01:17:12
  TRACK 93 AUDIO
    TITLE "0:"
    INDEX 01 01:18:23
  TRACK 94 AUDIO
    TITLE "2:cjc102_3460"
    INDEX 01 01:18:35
  TRACK 95 AUDIO
    TITLE "0:"
    INDEX 01 01:19:38
  TRACK 96 AUDIO
    TITLE "2:cjc102_3461"
    INDEX 01 01:19:72
  TRACK 97 AUDIO
    TITLE "0:"
    INDEX 01 01:21:04
  TRACK 98 AUDIO
    TITLE "3:cjc102_3462"
    INDEX 01 01:22:07
  TRACK 99 AUDIO
    TITLE "0:"
    INDEX 01 01:23:36
  TRACK 100 AUDIO
    TITLE "2:cjc102_3463"
    INDEX 01 01:23:69
  TRACK 101 AUDIO
    TITLE "0:"
    INDEX 01 01:26:30
  TRACK 102 AUDIO
    TITLE "3:cjc102_3464"
    INDEX 01 01:27:61
  TRACK 103 AUDIO
    TITLE "0:"
    INDEX 01 01:29:07
  TRACK 104 AUDIO
    TITLE "2:cjc102_3465"
    INDEX 01 01:29:37
  TRACK 105 AUDIO
    TITLE "0:"
    INDEX 01 01:32:64
  TRACK 106 AUDIO
    TITLE "3:cjc102_3466"
    INDEX 01 01:33:36
  TRACK 107 AUDIO
    TITLE "0:"
    INDEX 01 01:34:65
  TRACK 108 AUDIO
    TITLE "2:cjc102_3467"
    INDEX 01 01:35:26
  TRACK 109 AUDIO
    TITLE "0:"
    INDEX 01 01:36:29
  TRACK 110 AUDIO
    TITLE "3:cjc102_3468"
    INDEX 01 01:37:50
  TRACK 111 AUDIO
    TITLE "0:"
    INDEX 01 01:39:06
  TRACK 112 AUDIO
    TITLE "2:cjc102_3469"
    INDEX 01 01:39:47
  TRACK 113 AUDIO
    TITLE "0:"
    INDEX 01 01:40:52
  TRACK 114 AUDIO
    TITLE "3:cjc102_3470"
    INDEX 01 01:41:67
  TRACK 115 AUDIO
    TITLE "0:"
    INDEX 01 01:43:13
  TRACK 116 AUDIO
    TITLE "2:cjc102_3471"
    INDEX 01 01:43:52
  TRACK 117 AUDIO
    TITLE "0:"
    INDEX 01 01:44:52
  TRACK 118 AUDIO
    TITLE "3:cjc102_3472"
    INDEX 01 01:46:00
  TRACK 119 AUDIO
    TITLE "0:"
    INDEX 01 01:47:31
  TRACK 120 AUDIO
    TITLE "2:cjc102_3473"
    INDEX 01 01:47:33
  TRACK 121 AUDIO
    TITLE "0:"
    INDEX 01 01:48:48
